<svg width="42" height="73" viewBox="0 0 42 73" fill="none" xmlns="http://www.w3.org/2000/svg">
<path d="M35.8584 71.4307H5.34668C3.26045 71.4307 1.56934 69.7396 1.56934 67.6533V5.34668C1.56934 3.26045 3.26045 1.56934 5.34668 1.56934H35.8584C37.9446 1.56934 39.6357 3.26045 39.6357 5.34668V67.6533C39.6357 69.7396 37.9446 71.4307 35.8584 71.4307Z" fill="#EAF6FF" stroke="black"/>
<path d="M35.8584 72.5H5.34668C2.67459 72.5 0.5 70.3254 0.5 67.6533V5.34668C0.5 2.67459 2.67459 0.5 5.34668 0.5H35.8584C38.5305 0.5 40.7051 2.67459 40.7051 5.34668V67.6533C40.7051 70.3254 38.5305 72.5 35.8584 72.5ZM5.34668 1.63867C3.30156 1.63867 1.63867 3.30173 1.63867 5.34668V67.6533C1.63867 69.6983 3.30156 71.3613 5.34668 71.3613H35.8584C37.9035 71.3613 39.5664 69.6983 39.5664 67.6533V5.34668C39.5664 3.30173 37.9035 1.63867 35.8584 1.63867H5.34668Z" fill="#9E9797" stroke="black"/>
</svg>
